<svg width="111" height="30" fill="none" xmlns="http://www.w3.org/2000/svg"><path fill-rule="evenodd" clip-rule="evenodd" d="M0 27.474h7.146l1.705-4.532h9.31l1.64 4.532h7.277L17.047 2.143H9.966L0 27.473Zm67.596 0h6.36V2.143h-6.36v25.33ZM66.088 9.096h-6.36v9.872c0 3.29-2.098 4.098-3.475 4.098-2.032 0-3.147-.87-3.147-3.29V9.095h-6.36v11.052c0 4.843 1.64 7.885 7.212 7.885 2.23 0 4.721-1.18 5.901-3.043h.066v2.484h6.163V9.096ZM46.026 27.474h-18.49l-.065-4.718 9.703-9.127h-8.916V9.034h17.046v4.595l-9.703 9.25h10.425v4.595ZM13.57 9.16h-.065l-3.082 8.878h6.098l-2.95-8.878Z" fill="#13B5EA"/><path d="M99.972 2.745h1.842v1.373h-1.842V2.745Z" fill="#5162AA"/><path d="M93.287 17.45h5.525v5.687h-5.525V17.45Z" fill="#8C338A"/><path d="M96.97 24.314h3.616v2.091h-3.615v-2.091Z" fill="#5D81C1"/><path d="M94.788 25.294h4.366v4.183h-4.366v-4.183Z" fill="#E75027"/><path d="M100.245 21.503h3.752v1.569h-3.752v-1.569Z" fill="#D5292A"/><path d="M98.88 18.627h3.821v.98h-3.82v-.98Z" fill="#F6A124"/><path d="M103.997 21.503h2.66v.72h-2.66v-.72Z" fill="#6A95CD"/><path d="M98.88 14.117h3.684v4.51h-3.683v-4.51Z" fill="#3370B6"/><path d="M91.65 10.654h7.163v6.732H91.65v-6.732Z" fill="#74C7DC"/><path d="M87.489 10.654h4.775v3.725h-4.775v-3.725Z" fill="#92C144"/><path d="M93.697 4.38h8.117v6.339h-8.117v-6.34Z" fill="#5162AA"/><path d="M102.496 11.503h5.935v6.928h-5.935v-6.928Z" fill="#199BD6"/><path d="M101.609 15.425h5.048v6.143h-5.048v-6.143Z" fill="#F6A124"/><path d="M98.88 19.608h3.752v3.529h-3.751v-3.53Z" fill="#D5292A"/><path d="M96.63 21.764h4.843v2.55H96.63v-2.55Z" fill="#1F9AA7"/><path d="M106.657 17.843h1.024v3.072h-1.024v-3.072Z" fill="#A5BFDF"/><path d="M108.431 11.307h2.729v1.634h-2.729v-1.634Z" fill="#3FB6AF"/><path d="M108.226 12.876h1.978v1.045h-1.978v-1.045Z" fill="#AF2458"/><path d="M98.88 7.974h3.684v6.209h-3.683v-6.21Z" fill="#7AC19A"/><path d="M102.496 5.49h4.98v6.013h-4.98V5.49Z" fill="#E5DF22"/><path d="M101.883 4.38h3.615V10h-3.615V4.38Z" fill="#34BBD0"/><path d="M106.726 9.87h4.911v1.633h-4.911V9.87Z" fill="#6BA8DB"/><path d="M107.476 6.209h2.319v3.66h-2.319V6.21Z" fill="#DF5297"/><path d="M109.113 7.385h2.183V8.89h-2.183V7.385Z" fill="#604696"/><path d="M108.567 8.889h3.07v1.503h-3.07V8.889Z" fill="#F9D805"/><path fill-rule="evenodd" clip-rule="evenodd" d="M101.814 2.68h-1.842v1.437h1.842V2.68Zm-4.775.064h-3.343v3.53h3.343v-3.53Z" fill="#5162AA"/><path d="M83.396 2.745h10.368v7.974H83.397V2.745Z" fill="#16B9E7"/><path d="M88.716 0h3.616v4.51h-3.616V0Z" fill="#42AD4B"/><path d="M81.213 10.065h6.685v2.484h-6.685v-2.484Z" fill="#E6B722"/><path d="M97.039.392h2.592V4.38h-2.592V.392Z" fill="#B9CF36"/><path d="M100.518 15.425h1.023v.98h-1.023v-.98Z" fill="#92C144"/></svg>